<svg data-v-0dd9719b="" version="1.0" xmlns="http://www.w3.org/2000/svg" xmlns:xlink="http://www.w3.org/1999/xlink" width="100%" height="100%" viewBox="0 0 340.000000 250.000000" preserveAspectRatio="xMidYMid meet" color-interpolation-filters="sRGB" style="margin: auto;"> <rect data-v-0dd9719b="" x="0" y="0" width="100%" height="100%" fill="#fff" fill-opacity="1" class="background"></rect> <rect data-v-0dd9719b="" x="0" y="0" width="100%" height="100%" fill="url(#watermark)" fill-opacity="1" class="watermarklayer"></rect> <g data-v-0dd9719b="" fill="#333" class="icon-text-wrapper icon-svg-group iconsvg" transform="translate(50.45999908533054,95.05240821838379)"><g class="iconsvg-imagesvg" transform="translate(0,0)"><g><rect fill="#333" fill-opacity="0" stroke-width="2" x="0" y="0" width="60" height="59.89518342899925" class="image-rect"></rect> <svg x="0" y="0" width="60" height="59.89518342899925" filtersec="colorsb980966783" class="image-svg-svg primary" style="overflow: visible;"><svg xmlns="http://www.w3.org/2000/svg" viewBox="0.028017135336995125 0.01966051757335663 130.27294921875 130.0447235107422"><path d="M25.37 95.2c-2-.8-3.9-1.5-5.8-2.3a56.4 56.4 0 0 0 7.4 9.5 53.5 53.5 0 0 0 44.6 15.6c-.6-.3-1.3-.6-1.9-.9a10 10 0 0 1-1.4-.8 90.57 90.57 0 0 1-14.1-8.8 91.71 91.71 0 0 1-8.3-7.1h-.3a99.69 99.69 0 0 1-20.2-5.2zM22 57c1.3-2.7 2.7-5.3 4.3-8 1-1.7 2.1-3.3 3.2-4.9a78.68 78.68 0 0 1 9.6-11.3c1.5-1.5 3.2-2.9 4.9-4.3a76.36 76.36 0 0 1 11.9-7.8c.1 0 .2-.1.3-.1a100 100 0 0 1 19.5-7.7 1.27 1.27 0 0 1 .6-.1 53.73 53.73 0 0 0-39.9 7.3 82.93 82.93 0 0 1 8.7-.2 102.2 102.2 0 0 1 10.9.9 76.36 76.36 0 0 0-11.9 7.8 6.75 6.75 0 0 0-1.4-.2 97.28 97.28 0 0 0-14.3-.3c0 2 0 4.1.1 6.1.2 3.4.6 6.7 1.1 10-1.1 1.6-2.2 3.2-3.2 4.9A61.09 61.09 0 0 0 22 57a.37.37 0 0 0-.1-.3 99.12 99.12 0 0 1-1.3-20.9v-.3a53.31 53.31 0 0 0-6.4 45.2A96 96 0 0 1 17.77 67 106.39 106.39 0 0 1 22 57z" fill="none"></path><path d="M86.37 83.9a97.75 97.75 0 0 0 3.8-14.3 102.84 102.84 0 0 0 1.2-22.1 100 100 0 0 0-12.4-8 99.27 99.27 0 0 0-20.8-8c1.1-.8 2.3-1.6 3.5-2.4a93.36 93.36 0 0 1 8.7-5 85.66 85.66 0 0 1 13.7 5.6c1.9 1 3.7 2.1 5.6 3.3-.1-.5-.1-.8-.2-1.3a78.73 78.73 0 0 0-4.1-13.5c-1.9 0-3.9 1.1-5.8 1.8-3.1 1.3-6.2 2.6-9.1 4.1s-5.9 3.2-8.7 5c-1.2.8-2.4 1.6-3.5 2.4A86.7 86.7 0 0 0 47 40.9a105.63 105.63 0 0 0-14.1 17.3 97.6 97.6 0 0 0 5.4 13.7 106.45 106.45 0 0 0 12 18.7 89.87 89.87 0 0 0 14.8-.9 119.75 119.75 0 0 0 21.27-5.8zM25.07 72a90.57 90.57 0 0 0-4.9 13.5c2 .6 3.9 1.2 6 1.7 3.3.8 6.6 1.5 9.9 2a88.77 88.77 0 0 1-7.8-12.6 62.08 62.08 0 0 1-2.6-5.9 95.15 95.15 0 0 1 6.2-11.3 95.15 95.15 0 0 0-6.2 11.3c-.2.4-.4.8-.6 1.3zM88.37 16.9c-.5.1-1 .3-1.4.4.5-.1.9-.3 1.4-.4zM18.77 91.5c.4-1.7.8-3.5 1.2-5.2-.4 1.7-.8 3.4-1.2 5.2zM99.67 77.7A8.26 8.26 0 0 0 101 77a104 104 0 0 0 11.9-8.1c-1.2-1.7-2.5-3.3-3.8-4.9a96.18 96.18 0 0 0-6.8-7.4 82.64 82.64 0 0 1-1.1 14.8q-.63 3.15-1.53 6.3zM103.37 27.6a50.35 50.35 0 0 0-9.2-7.5 95.4 95.4 0 0 1 4.1 11.1 74.34 74.34 0 0 1 2.5 10.6l.2.2a98.8 98.8 0 0 1 13.3 16.1c1.4 2.1 2.6 4.2 3.8 6.2.1.2.3.5.4.7a51.58 51.58 0 0 0-2.6-16.4 51.21 51.21 0 0 0-12.5-21zM81 97a77.61 77.61 0 0 1-14.4 3.5c-2.1.3-4.3.5-6.5.6.4.3.7.7 1.1 1a90.81 90.81 0 0 0 11.4 8.8c1.2-1.7 2.4-3.4 3.5-5.2A92.5 92.5 0 0 0 81 97zM94.67 91c0 .1-.1.2-.1.3a98.62 98.62 0 0 1-11.2 17.7c-1.6 2-3.2 3.8-4.7 5.5.9.5 1.7.9 2.6 1.4a52.25 52.25 0 0 0 21.3-12.8 52.86 52.86 0 0 0 14.9-27.2c-.2-.4-.5-.8-.7-1.2A92.88 92.88 0 0 1 104 85.4a84.85 84.85 0 0 1-9.33 5.6z" fill="none"></path><path d="M94.17 20.1a47.09 47.09 0 0 0-5.8-3.2c-.5.1-1 .3-1.4.4a10.26 10.26 0 0 1 1.4-.4 48.72 48.72 0 0 0-12.2-4.1 1.27 1.27 0 0 1-.6.1 100 100 0 0 0-19.5 7.7c-.1 0-.2.1-.3.1 2.9.4 5.9.9 8.9 1.6 1.9.4 3.8 1 5.7 1.6a92.81 92.81 0 0 1 9.1-4c1.9-.8 3.8-1.8 5.8-1.8a78.73 78.73 0 0 1 4.1 13.5c.1.5.1.9.2 1.3a100.64 100.64 0 0 1 1.7 14.5 102.5 102.5 0 0 1-1.2 22.1 86.59 86.59 0 0 1-3.8 14.3 103.89 103.89 0 0 1-21.4 5.7 89.19 89.19 0 0 1-14.8.9A99.61 99.61 0 0 0 60 101.1c2.2-.1 4.3-.3 6.5-.6A77.61 77.61 0 0 0 80.87 97a75.26 75.26 0 0 1-5 8.7c-1.1 1.8-2.3 3.5-3.5 5.2 1.9 1.3 4 2.5 6 3.6 1.6-1.8 3.1-3.6 4.7-5.5a98.62 98.62 0 0 0 11.2-17.7.37.37 0 0 0 .1-.3 72.2 72.2 0 0 0 9.3-5.7 91.77 91.77 0 0 0 12.8-10.7q-1.8-2.85-3.9-5.7a104 104 0 0 1-11.9 8.1 8.26 8.26 0 0 0-1.3.7 47.46 47.46 0 0 0 1.4-6.3 82 82 0 0 0 1.1-14.8 58.28 58.28 0 0 0-.3-5.9q-.45-4.65-1.2-9a90.92 90.92 0 0 0-2.5-10.6 56.9 56.9 0 0 0-3.7-11z" fill="#e24301"></path><path d="M46.87 40.8a106.27 106.27 0 0 1 11.3-9.4A96.39 96.39 0 0 0 44 28.6c-1.7 1.4-3.3 2.8-4.9 4.3a78.68 78.68 0 0 0-9.6 11.3c-1.1 1.6-2.2 3.2-3.2 4.9a88.3 88.3 0 0 0-4.3 8 97.89 97.89 0 0 0-4.2 10.1 96 96 0 0 0-3.6 13.7c.1.2.1.5.2.7a47.94 47.94 0 0 0 4.5 10.1c.4-1.7.8-3.5 1.2-5.2-.4 1.7-.8 3.4-1.2 5.2.3.4.5.9.8 1.3 1.9.8 3.8 1.6 5.8 2.3a100.65 100.65 0 0 0 20.3 5.2h.3c-2.1-2.1-4.2-4.2-6.2-6.6-1.3-1.5-2.5-3-3.7-4.6-3.3-.5-6.6-1.2-9.9-2-2-.5-4-1.1-6-1.7a86.68 86.68 0 0 1 4.9-13.5c.2-.4.4-.8.6-1.3a96.55 96.55 0 0 1 6.4-11.3c.3-.5 0-.9 1-1.4H33a96.75 96.75 0 0 1 13.87-17.3z" fill="#e24301"></path><path d="M70.47 24a93.36 93.36 0 0 0-8.7 5c-1.2.8-2.4 1.6-3.5 2.4a107.53 107.53 0 0 1 20.8 8 93.11 93.11 0 0 1 12.4 8 100.64 100.64 0 0 0-1.7-14.5 63.17 63.17 0 0 0-5.6-3.3 80.51 80.51 0 0 0-13.7-5.6z" fill="#00a896"></path><path d="M58.17 31.4c1.1-.8 2.3-1.6 3.5-2.4a93.36 93.36 0 0 1 8.7-5c-1.9-.6-3.8-1.1-5.7-1.6-3-.7-6-1.2-8.9-1.6a76.36 76.36 0 0 0-11.9 7.8 92.79 92.79 0 0 1 14.3 2.8z" fill="#00a896"></path><path d="M127.07 45a63.38 63.38 0 0 0-15.5-25.5A65.1 65.1 0 0 0 3.17 85.1a63.38 63.38 0 0 0 15.5 25.5 65.16 65.16 0 0 0 92 .9 64.51 64.51 0 0 0 16.4-66.5zm-8.9 19.3c-1.2-2-2.5-4.1-3.8-6.2a95.58 95.58 0 0 0-13.3-16.1c-.1-.1-.2-.1-.2-.2q.75 4.35 1.2 9c.2 2 .2 3.9.3 5.9 2.3 2.3 4.6 4.8 6.8 7.4 1.3 1.6 2.6 3.2 3.8 4.9q2.1 2.85 3.9 5.7a7.46 7.46 0 0 1 .7 1.2 53.19 53.19 0 0 1-14.9 27.2 54.06 54.06 0 0 1-21.3 12.8c-.9-.5-1.8-.9-2.6-1.4q-3.15-1.8-6-3.6a90.81 90.81 0 0 1-11.4-8.8c-.4-.3-.7-.7-1.1-1a91 91 0 0 1-9.9-10.7 103.46 103.46 0 0 1-11.8-18.7 57.89 57.89 0 0 1-5.2-13.7c-1 .4-.8.9-1 1.4a95.84 95.84 0 0 0-6.3 11.3c.8 2 1.6 4 2.5 5.9a80 80 0 0 0 7.7 12.6c1.2 1.6 2.4 3.1 3.7 4.6 2 2.3 4.1 4.5 6.2 6.6a78.06 78.06 0 0 0 8.3 7.1 90.57 90.57 0 0 0 14.1 8.8 10 10 0 0 1 1.4.8c.7.3 1.3.6 1.9.9a53.4 53.4 0 0 1-44.6-15.6 47.7 47.7 0 0 1-7.4-9.5c-.3-.4-.5-.9-.8-1.3a57.46 57.46 0 0 1-4.5-10.1c-.1-.2-.1-.5-.2-.7a52.94 52.94 0 0 1 6.5-45.2v.3a99.12 99.12 0 0 0 1.3 20.9.37.37 0 0 0 .1.3c1.3-2.7 2.7-5.3 4.3-8 1-1.7 2.1-3.3 3.2-4.9-.5-3.3-.9-6.6-1.1-10-.1-2-.1-4.1-.1-6.1a97.28 97.28 0 0 1 14.3.3 6.75 6.75 0 0 0 1.4.2 76.36 76.36 0 0 1 11.9-7.8 102.2 102.2 0 0 0-10.9-.9 82.93 82.93 0 0 0-8.7.2 53.93 53.93 0 0 1 52.1-3.2 47.09 47.09 0 0 1 5.8 3.2 50.35 50.35 0 0 1 9.2 7.5 52.75 52.75 0 0 1 12.7 21A55 55 0 0 1 119 65a1.42 1.42 0 0 1-.83-.7z" fill="#00a896"></path></svg></svg> <!----></g></g> <g transform="translate(67,2.0003528594970703)"><g data-gra="path-name" fill-rule="" class="tp-name iconsvg-namesvg" transform="translate(0,0)"><g transform="scale(1)"><g><path d="M37.48-0.77L7.65-0.77Q6.48-0.77 5.76-1.48 5.04-2.21 5.04-3.38L5.04-3.38 5.04-25.33Q5.04-27 6.71-27L6.71-27Q8.37-27 8.37-25.33L8.37-25.33 8.37-5.08Q8.37-4.14 9.31-4.14L9.31-4.14 20.61-4.14 20.61-35.01Q20.61-36.72 22.32-36.72L22.32-36.72Q24.03-36.72 24.03-35.01L24.03-35.01 24.03-4.14 35.77-4.14Q36.72-4.14 36.72-5.08L36.72-5.08 36.72-25.38Q36.72-27.04 38.43-27.04L38.43-27.04Q40.09-27.04 40.09-25.38L40.09-25.38 40.09-3.38Q40.09-2.21 39.38-1.48 38.66-0.77 37.48-0.77L37.48-0.77ZM82.66 0.49L52.56 0.49Q51.39 0.49 50.67-0.22 49.95-0.94 49.95-2.11L49.95-2.11 49.95-22.41Q49.95-23.58 50.67-24.3 51.39-25.02 52.56-25.02L52.56-25.02 60.52-25.02 60.52-31.5 49.59-31.5Q48.02-31.5 48.02-33.12L48.02-33.12Q48.02-34.7 49.59-34.7L49.59-34.7 85.32-34.7Q86.89-34.7 86.89-33.12L86.89-33.12Q86.89-31.5 85.32-31.5L85.32-31.5 73.62-31.5 73.62-25.02 82.66-25.02Q83.84-25.02 84.56-24.3 85.28-23.58 85.28-22.41L85.28-22.41 85.28-2.11Q85.28-0.94 84.56-0.22 83.84 0.49 82.66 0.49L82.66 0.49ZM54.09-2.61L54.09-2.61 81-2.61Q81.94-2.61 81.94-3.55L81.94-3.55 81.94-12.29Q81.54-11.03 80.78-10.48L80.78-10.48Q80.06-10.04 78.7-10.04L78.7-10.04 74.3-10.04Q71.86-10.04 71.08-10.84 70.29-11.65 70.29-14.13L70.29-14.13 70.29-21.91 63.77-21.91 63.77-19.8Q63.77-12.42 57.69-8.41L57.69-8.41Q56.97-8.01 56.2-7.92L56.2-7.92Q55.35-7.83 54.86-8.28L54.86-8.28Q54.13-8.96 54.67-9.81L54.67-9.81Q55.08-10.53 56.16-11.16L56.16-11.16Q60.66-14.35 60.66-19.84L60.66-19.84 60.66-21.91 54.09-21.91Q53.14-21.91 53.14-20.97L53.14-20.97 53.14-3.55Q53.14-2.61 54.09-2.61ZM74.75-13L74.75-13 78.34-13Q79.11-13 79.34-13.72L79.34-13.72Q79.56-16.47 81-15.71L81-15.71Q81.63-15.43 81.94-15.34L81.94-15.34 81.94-20.97Q81.94-21.91 81-21.91L81-21.91 73.48-21.91 73.48-14.13Q73.48-13.37 73.69-13.18 73.89-13 74.75-13ZM63.77-31.5L63.77-25.02 70.29-25.02 70.29-31.5 63.77-31.5ZM131.31 2.21L108.36 2.21Q106.78 2.21 106.78 0.63 106.78-0.94 108.36-0.94L108.36-0.94 118.31-0.94 118.31-11.83 111.06-11.83Q109.53-11.83 109.53-13.41L109.53-13.41Q109.53-14.94 111.06-14.94L111.06-14.94 129.28-14.94Q130.81-14.94 130.81-13.41L130.81-13.41Q130.81-11.83 129.28-11.83L129.28-11.83 121.55-11.83 121.55-0.94 131.31-0.94Q132.88-0.94 132.88 0.63 132.88 2.21 131.31 2.21L131.31 2.21ZM94.28 0.22Q93.47 0.45 93.08 0.14 92.7-0.18 92.54-1.06 92.39-1.93 92.61-2.38L92.61-2.38Q92.83-2.83 93.6-3.01L93.6-3.01Q96.08-3.51 98.95-4.23L98.95-4.23Q99.31-4.32 100.13-4.5L100.13-4.5Q103.64-5.35 105.48-5.76L105.48-5.76Q106.97-6.12 107.19-4.54L107.19-4.54Q107.33-3.24 106.02-2.88L106.02-2.88Q103.95-2.34 99.9-1.26L99.9-1.26Q96.03-0.22 94.28 0.22L94.28 0.22ZM94.72-9.09Q93.02-8.96 92.7-9.86L92.7-9.86Q92.43-10.66 93.06-11.56L93.06-11.56Q93.42-12.11 94.59-13.23L94.59-13.23Q95.31-13.95 95.67-14.35L95.67-14.35Q97.16-15.84 100.44-20.34L100.44-20.34Q99.54-20.2 98.01-19.98L98.01-19.98Q94.81-19.53 93.96-19.57L93.96-19.57Q92.75-19.66 92.43-20.61L92.43-20.61Q92.16-21.42 92.56-22.32L92.56-22.32Q92.83-22.86 93.69-23.89L93.69-23.89Q94.23-24.61 94.5-24.97L94.5-24.97Q95.44-26.37 96.89-28.98L96.89-28.98Q98.73-32.45 99.99-35.55L99.99-35.55Q100.35-36.45 100.98-36.85L100.98-36.85Q101.66-37.3 102.42-36.9L102.42-36.9Q103.91-36.18 103.23-34.6L103.23-34.6Q100.17-28.04 96.48-22.77L96.48-22.77 102.56-23.45Q103.5-24.79 104.58-26.73L104.58-26.73Q105.44-28.26 106.97-27.31L106.97-27.31Q108.36-26.41 107.46-24.97L107.46-24.97Q102.96-17.95 98.33-12.91L98.33-12.91 102.73-13.68 105.44-14.17Q107.1-14.49 107.1-12.82L107.1-12.82Q107.1-12.24 105.97-11.61L105.97-11.61Q105.08-11.12 104.17-10.93L104.17-10.93Q103.09-10.71 101.2-10.3L101.2-10.3Q96.03-9.22 94.72-9.09L94.72-9.09ZM109.62-17.05Q108.18-16.52 107.37-17.64L107.37-17.64Q106.16-19.26 108.27-20.02L108.27-20.02Q113.27-22.05 117.54-25.11L117.54-25.11Q122.13-28.39 124.74-32.17L124.74-32.17 110.66-32.17Q109.13-32.17 109.13-33.75L109.13-33.75Q109.13-35.28 110.66-35.28L110.66-35.28 126.72-35.28Q128.16-35.28 128.63-34.45 129.1-33.62 128.43-32.13L128.43-32.13Q126.36-28.17 122.35-24.7L122.35-24.7Q128.66-21.91 132.03-19.98L132.03-19.98Q132.7-19.57 132.7-19.08L132.7-19.08Q132.66-18.63 132.16-17.91 131.67-17.19 131.31-17.01L131.31-17.01Q130.81-16.83 130.19-17.23L130.19-17.23Q126.05-19.84 119.75-22.63L119.75-22.63Q115.16-19.35 109.62-17.05L109.62-17.05ZM140.35 1.84Q139.5 3.51 138.06 2.52L138.06 2.52Q136.8 1.67 137.56 0.14L137.56 0.14Q139.5-4.05 140.26-10.21L140.26-10.21Q140.76-14.35 140.76-20.34L140.76-20.34 140.76-30.6Q140.76-31.77 141.48-32.49 142.2-33.21 143.37-33.21L143.37-33.21 157.09-33.21 157.09-35.95Q157.09-37.62 158.81-37.62L158.81-37.62Q160.47-37.62 160.47-35.95L160.47-35.95 160.47-33.21 175.59-33.21Q177.12-33.21 177.12-31.68 177.12-30.15 175.59-30.15L175.59-30.15 144.81-30.15Q143.87-30.15 143.87-29.2L143.87-29.2 143.87-20.34Q143.87-5.85 140.35 1.84L140.35 1.84ZM176.67 2.48Q176 3.51 174.47 3.28L174.47 3.28Q166.86 2.16 161.32-0.45L161.32-0.45Q155.29 2.07 147.06 3.24L147.06 3.24Q145.66 3.46 145.08 2.29L145.08 2.29Q144.27 0.63 146.34 0.4L146.34 0.4Q152.87-0.45 158-2.25L158-2.25Q154.4-4.46 152.06-7.29L152.06-7.29Q151.56-7.92 151.74-8.48 151.92-9.04 152.64-9.31L152.64-9.31 152.78-9.36 147.28-9.36Q145.94-9.36 145.94-10.75L145.94-10.75Q145.94-12.11 147.28-12.11L147.28-12.11 170.59-12.11Q172.03-12.11 172.46-11.29 172.89-10.48 172.17-9L172.17-9Q169.6-4.86 164.79-2.16L164.79-2.16Q169.56-0.45 175.32 0.36L175.32 0.36Q177.88 0.63 176.67 2.48L176.67 2.48ZM161.37-3.65L161.37-3.65Q166.41-6.08 168.88-9.36L168.88-9.36 154.17-9.36Q156.56-6.12 161.37-3.65ZM167-14.94L155.07-14.94Q153.9-14.94 153.18-15.66 152.46-16.38 152.46-17.55L152.46-17.55 152.46-22.36 146.75-22.36Q145.4-22.36 145.4-23.76L145.4-23.76Q145.4-25.11 146.75-25.11L146.75-25.11 152.46-25.11 152.46-27.45Q152.46-29.02 154.03-29.02L154.03-29.02Q155.61-29.02 155.61-27.45L155.61-27.45 155.61-25.11 166.41-25.11 166.41-27.45Q166.41-29.02 168.03-29.02L168.03-29.02Q169.6-29.02 169.6-27.45L169.6-27.45 169.6-25.11 175.45-25.11Q176.81-25.11 176.81-23.76L176.81-23.76Q176.81-22.36 175.45-22.36L175.45-22.36 169.6-22.36 169.6-17.55Q169.6-16.38 168.88-15.66 168.16-14.94 167-14.94L167-14.94ZM156.56-17.64L156.56-17.64 165.47-17.64Q166.41-17.64 166.41-18.59L166.41-18.59 166.41-22.36 155.61-22.36 155.61-18.59Q155.61-17.64 156.56-17.64Z" transform="translate(-5.039999961853027, 37.619998931884766)"></path></g> <!----> <!----> <!----> <!----> <!----> <!----> <!----></g></g> <g data-gra="path-slogan" fill-rule="" class="tp-slogan iconsvg-slogansvg" fill="#333" transform="translate(5,46.94198226928711)"><rect x="0" height="1" y="3.9750003814697266" width="19.84417724609375"></rect> <rect height="1" y="3.9750003814697266" width="19.84417724609375" x="142.23582458496094"></rect> <g transform="translate(22.84417724609375,0)"><g transform="scale(1)"><path d="M7.17-6.09L7.17-6.09L6.09-6.09Q6-7.73 3.94-7.83L3.94-7.83Q2.02-7.78 2.02-6.33L2.02-6.33Q2.02-5.39 3.05-5.25L3.05-5.25L5.48-4.69Q7.41-4.22 7.41-2.34L7.41-2.34Q7.36 0.05 4.03 0.14L4.03 0.14Q2.20 0.14 1.45-0.61L1.45-0.61Q0.52-1.31 0.56-2.77L0.56-2.77L1.69-2.77Q1.73-0.80 4.03-0.75L4.03-0.75Q6.28-0.80 6.33-2.20L6.33-2.20Q6.52-3.38 4.45-3.75L4.45-3.75L2.67-4.13Q0.84-4.64 0.84-6.19L0.84-6.19Q0.98-8.72 3.84-8.81L3.84-8.81Q7.08-8.81 7.17-6.09ZM10.03-5.06L14.53-5.06L14.53-8.58L15.70-8.58L15.70 0L14.53 0L14.53-3.98L10.03-3.98L10.03 0L8.86 0L8.86-8.58L10.03-8.58L10.03-5.06ZM23.16 0L22.31-2.48L18.84-2.48L17.95 0L16.78 0L20.02-8.58L21.33-8.58L24.42 0L23.16 0ZM20.58-7.31L19.22-3.52L21.89-3.52L20.63-7.31L20.58-7.31ZM26.86-8.58L31.17-1.64L31.17-8.58L32.30-8.58L32.30 0L30.98 0L26.63-6.94L26.58-6.94L26.58 0L25.45 0L25.45-8.58L26.86-8.58ZM40.83-8.58L37.92-4.41L40.97 0L39.52 0L37.17-3.52L34.83 0L33.42 0L36.52-4.41L33.61-8.58L35.06-8.58L37.22-5.30L39.42-8.58L40.83-8.58ZM42.23-8.58L43.41-8.58L43.41 0L42.23 0L42.23-8.58ZM48.70-8.58L49.88-8.58L49.88-1.03L54.23-1.03L54.23 0L48.70 0L48.70-8.58ZM62.16-4.27L62.16-4.27Q61.97-7.64 59.16-7.83L59.16-7.83Q56.30-7.69 56.16-4.27L56.16-4.27Q56.30-0.94 59.16-0.80L59.16-0.80Q61.97-0.98 62.16-4.27ZM63.33-4.27L63.33-4.27Q63.05 0 59.16 0.14L59.16 0.14Q55.22 0 54.94-4.27L54.94-4.27Q55.17-8.72 59.16-8.81L59.16-8.81Q63.05-8.67 63.33-4.27ZM66.09-8.58L70.41-1.64L70.41-8.58L71.53-8.58L71.53 0L70.22 0L65.86-6.94L65.81-6.94L65.81 0L64.69 0L64.69-8.58L66.09-8.58ZM79.73-3.61L77.11-3.61L77.11-4.59L80.86-4.59L80.86 0L80.11 0L79.83-1.08Q78.84 0.09 77.02 0.14L77.02 0.14Q75.28 0.14 74.34-0.75L74.34-0.75Q72.94-2.06 72.98-4.36L72.98-4.36Q73.31-8.63 77.06-8.81L77.06-8.81Q80.25-8.63 80.72-6L80.72-6L79.59-6Q79.13-7.78 77.02-7.83L77.02-7.83Q74.34-7.64 74.20-4.31L74.20-4.31Q74.20-0.75 77.06-0.75L77.06-0.75Q78.09-0.75 78.84-1.31L78.84-1.31Q79.78-2.06 79.73-3.61L79.73-3.61ZM82.83-8.58L84-8.58L84 0L82.83 0L82.83-8.58ZM88.17-7.59L85.27-7.59L85.27-8.58L92.20-8.58L92.20-7.59L89.30-7.59L89.30 0L88.17 0L88.17-7.59ZM98.91-3.19L98.91-8.58L100.08-8.58L100.08-3.05Q99.94 0.05 96.56 0.14L96.56 0.14Q93.42 0.05 93.28-2.86L93.28-2.86L93.28-8.58L94.45-8.58L94.45-3.19Q94.50-0.84 96.61-0.80L96.61-0.80Q98.91-0.84 98.91-3.19L98.91-3.19ZM105.38 0L101.91 0L101.91-8.58L105.42-8.58Q108.89-8.39 109.03-4.41L109.03-4.41Q108.84-0.09 105.38 0L105.38 0ZM105.23-7.64L103.08-7.64L103.08-0.98L105.33-0.98Q107.77-1.13 107.86-4.31L107.86-4.31Q107.81-7.55 105.23-7.64L105.23-7.64ZM111.80-1.03L116.95-1.03L116.95 0L110.63 0L110.63-8.58L116.86-8.58L116.86-7.59L111.80-7.59L111.80-4.92L116.48-4.92L116.48-3.89L111.80-3.89L111.80-1.03Z" transform="translate(-0.5602678571428572, 8.8125)"></path></g></g></g></g></g><defs v-gra="od"></defs></svg>